<?xml version="1.0" standalone="no"?>
<!DOCTYPE svg PUBLIC "-//W3C//DTD SVG 20010904//EN"
 "http://www.w3.org/TR/2001/REC-SVG-20010904/DTD/svg10.dtd">
<svg version="1.0" xmlns="http://www.w3.org/2000/svg"
 width="270.000000pt" height="270.000000pt" viewBox="0 0 270.000000 270.000000"
 preserveAspectRatio="xMidYMid meet">
<metadata>
Created by potrace 1.11, written by Peter Selinger 2001-2013
</metadata>
<g transform="translate(0.000000,270.000000) scale(0.100000,-0.100000)"
fill="#000000" stroke="none">
<path d="M1468 2620 c-22 -11 -57 -18 -100 -19 -99 -1 -213 -23 -300 -56 l-37
-14 -31 37 -31 37 3 -45 3 -44 -64 -18 c-35 -9 -77 -19 -92 -22 -15 -2 -43
-10 -62 -17 -28 -10 -39 -10 -50 0 -12 10 -17 6 -26 -21 -6 -18 -36 -56 -67
-85 -35 -33 -53 -57 -48 -64 5 -8 2 -10 -8 -6 -9 3 -25 -4 -37 -17 -15 -15
-30 -22 -45 -19 -29 6 -44 -14 -22 -30 13 -11 12 -16 -13 -43 -15 -17 -56 -48
-91 -70 -61 -38 -63 -39 -38 -48 l25 -9 -55 -89 c-52 -85 -57 -90 -84 -84 -27
5 -28 4 -16 -17 14 -26 28 -98 18 -92 -4 2 -19 -36 -33 -84 -26 -87 -27 -89
-57 -86 -36 3 -39 -8 -7 -22 l24 -11 -18 -69 c-10 -37 -18 -92 -18 -121 -1
-30 -8 -63 -17 -77 -13 -20 -13 -27 -2 -52 10 -19 14 -70 13 -169 0 -133 1
-141 18 -136 17 4 18 1 12 -26 -6 -28 -3 -33 19 -42 14 -5 26 -14 26 -19 0 -6
22 -36 48 -68 64 -76 89 -115 72 -111 -7 2 -15 -3 -17 -10 -4 -11 44 -28 63
-22 3 1 17 -12 31 -29 14 -17 32 -31 39 -31 8 0 14 -6 14 -12 0 -7 18 -32 40
-55 22 -23 39 -47 38 -54 -2 -6 11 -19 27 -28 17 -10 34 -27 40 -39 5 -12 15
-22 21 -22 6 0 37 -27 68 -60 31 -33 60 -59 64 -58 4 1 34 -12 67 -29 33 -17
71 -34 85 -37 48 -14 90 -41 90 -58 0 -21 4 -22 28 -7 14 9 38 6 102 -10 46
-11 96 -21 111 -21 14 0 50 -13 79 -28 l52 -28 46 22 c42 20 50 21 78 9 26
-11 34 -11 45 0 8 7 43 16 79 19 95 10 180 35 181 55 0 9 3 11 5 4 6 -14 30
-5 106 39 28 16 55 24 67 21 15 -4 21 -1 21 12 0 9 39 57 88 106 89 92 117
130 66 91 -114 -87 -172 -122 -283 -170 -152 -65 -289 -112 -327 -112 -23 0
-26 -2 -14 -10 8 -5 10 -10 4 -10 -6 0 -14 3 -17 7 -10 9 -168 10 -174 0 -3
-4 -10 -4 -16 1 -7 6 -37 13 -69 16 -65 8 -187 40 -238 63 -19 9 -70 45 -113
80 -44 35 -85 63 -93 63 -9 0 -13 4 -9 9 3 5 1 12 -5 16 -5 3 -10 1 -10 -4 0
-6 -4 -11 -10 -11 -5 0 -6 7 -3 17 4 11 3 14 -5 9 -7 -4 -12 -2 -12 6 0 7 -28
36 -62 63 -82 66 -255 220 -296 265 -78 82 -152 219 -178 327 -18 74 -24 338
-11 428 10 61 41 185 62 244 8 24 13 47 10 51 -3 5 -2 10 2 12 5 1 26 39 48
83 33 67 61 101 164 205 l124 124 -16 43 c-19 52 -13 58 7 8 16 -37 36 -47 36
-18 0 9 3 13 7 10 4 -4 20 6 37 23 17 16 69 62 115 101 175 149 236 171 456
171 83 -1 173 -4 200 -8 74 -10 391 -109 460 -144 128 -65 363 -255 451 -364
72 -91 85 -117 109 -214 13 -53 40 -145 59 -203 33 -101 49 -183 50 -259 1
-32 4 -35 31 -35 17 0 40 -6 52 -13 20 -11 21 -10 18 8 -2 11 -7 26 -12 33 -4
6 -8 46 -9 87 -1 42 -9 105 -17 140 -8 36 -15 78 -16 95 -1 16 -8 33 -16 38
-17 9 -37 51 -67 142 -11 33 -23 62 -27 65 -4 3 -20 30 -35 60 -16 30 -39 69
-52 87 -13 17 -24 39 -24 48 0 11 -6 14 -25 9 -15 -4 -25 -2 -25 5 0 6 6 8 14
5 7 -3 16 1 19 10 4 9 -2 16 -16 20 -12 3 -60 43 -106 90 -75 75 -82 86 -72
105 13 24 9 26 -20 10 -17 -9 -33 -2 -100 41 -43 29 -76 56 -74 60 7 12 -14
23 -45 26 -14 1 -48 11 -76 23 -44 20 -50 25 -46 47 5 28 -4 31 -29 8 -16 -15
-23 -14 -81 5 -64 20 -137 37 -150 33 -7 -2 -12 20 -10 40 3 16 -29 15 -60 -2z
m862 -571 c0 -5 -7 -9 -15 -9 -15 0 -20 12 -9 23 8 8 24 -1 24 -14z m150 -288
c0 -6 -4 -13 -10 -16 -5 -3 -10 1 -10 9 0 9 5 16 10 16 6 0 10 -4 10 -9z m50
-31 c0 -5 -4 -10 -10 -10 -5 0 -10 5 -10 10 0 6 5 10 10 10 6 0 10 -4 10 -10z
m-1832 -1378 c2 -7 -3 -12 -12 -12 -9 0 -16 7 -16 16 0 17 22 14 28 -4z m132
-82 c6 -11 8 -20 6 -20 -3 0 -10 9 -16 20 -6 11 -8 20 -6 20 3 0 10 -9 16 -20z
m805 -139 c3 -5 1 -12 -5 -16 -5 -3 -10 1 -10 9 0 18 6 21 15 7z m-225 -31 c0
-5 -2 -10 -4 -10 -3 0 -8 5 -11 10 -3 6 -1 10 4 10 6 0 11 -4 11 -10z"/>
<path d="M1327 2344 c-1 -1 -39 -4 -83 -8 -105 -8 -236 -46 -350 -102 -94 -46
-261 -171 -256 -192 1 -7 -2 -11 -6 -10 -13 4 -68 -57 -113 -124 -69 -101
-138 -255 -153 -344 -3 -16 -10 -54 -16 -84 -14 -72 -11 -243 6 -332 59 -307
261 -576 539 -715 69 -35 197 -79 252 -88 21 -3 61 -9 88 -13 40 -6 128 -8
168 -3 4 1 7 25 7 54 l0 54 -82 2 c-46 0 -94 3 -108 6 -72 14 -89 18 -135 31
-235 70 -453 261 -555 488 -63 138 -94 353 -72 489 7 44 6 57 -3 57 -7 0 -15
6 -18 14 -4 9 0 12 12 9 14 -4 21 7 36 54 25 83 89 209 138 275 57 76 147 170
181 188 16 8 32 24 36 35 4 11 16 21 26 22 11 1 53 18 95 37 158 73 363 106
510 81 54 -9 163 -37 179 -45 9 -5 18 -2 26 7 6 9 16 13 22 9 17 -10 15 -26
-3 -20 -8 4 -15 4 -15 0 0 -3 27 -19 60 -35 133 -66 239 -155 330 -275 47 -63
120 -200 120 -226 0 -5 4 -10 9 -10 6 0 10 -8 9 -17 0 -10 7 -51 16 -91 23
-104 23 -102 -28 -102 l-45 0 -11 58 c-60 310 -284 553 -583 631 -40 10 -89
21 -109 24 l-38 6 0 -59 c0 -57 1 -60 28 -65 94 -19 135 -31 197 -60 240 -110
389 -336 398 -602 l2 -73 103 0 102 0 0 -26 c0 -26 1 -27 51 -21 29 4 54 9 58
13 9 9 9 157 -1 221 -40 266 -161 480 -369 654 -27 23 -49 35 -49 29 0 -10 -4
-10 -15 0 -9 7 -13 15 -10 18 8 8 -93 65 -175 99 -64 26 -161 55 -195 59 -5 0
-35 4 -66 8 -51 7 -138 13 -142 10z m227 -73 c3 -5 0 -11 -8 -14 -8 -3 -17 1
-20 9 -6 15 19 20 28 5z m-204 -21 c0 -5 -4 -10 -10 -10 -5 0 -10 5 -10 10 0
6 5 10 10 10 6 0 10 -4 10 -10z m507 -146 c-9 -9 -28 6 -21 18 4 6 10 6 17 -1
6 -6 8 -13 4 -17z m-1102 -33 c7 -12 -12 -24 -25 -16 -11 7 -4 25 10 25 5 0
11 -4 15 -9z m1095 -141 c0 -5 -2 -10 -4 -10 -3 0 -8 5 -11 10 -3 6 -1 10 4
10 6 0 11 -4 11 -10z m105 -97 c-2 -10 -4 -20 -4 -22 -1 -3 -6 0 -12 6 -6 6
-8 16 -5 22 11 17 25 13 21 -6z m-50 -23 c-3 -5 -10 -10 -16 -10 -5 0 -9 5 -9
10 0 6 7 10 16 10 8 0 12 -4 9 -10z m60 -19 c3 -5 1 -12 -4 -15 -5 -3 -11 1
-15 9 -6 16 9 21 19 6z m-1471 -70 c3 -5 -1 -14 -8 -20 -16 -13 -32 2 -21 19
8 12 22 13 29 1z m1766 -25 c0 -16 -26 -46 -41 -46 -13 0 -11 34 3 48 16 16
38 15 38 -2z m-1803 -112 c-9 -9 -28 6 -21 18 4 6 10 6 17 -1 6 -6 8 -13 4
-17z m1803 -24 c-8 -5 -18 -6 -24 -3 -5 4 -1 10 10 13 24 9 34 2 14 -10z
m-150 -35 c0 -8 -4 -15 -10 -15 -5 0 -10 7 -10 15 0 8 5 15 10 15 6 0 10 -7
10 -15z m-1623 -552 c4 -11 -32 -25 -41 -15 -8 8 15 33 27 29 6 -2 12 -8 14
-14z m263 -397 c0 -3 -4 -8 -10 -11 -5 -3 -10 -1 -10 4 0 6 5 11 10 11 6 0 10
-2 10 -4z m245 -126 c-5 -8 -11 -8 -17 -2 -6 6 -7 16 -3 22 5 8 11 8 17 2 6
-6 7 -16 3 -22z m150 -70 c3 -5 -3 -10 -15 -10 -12 0 -18 5 -15 10 3 6 10 10
15 10 5 0 12 -4 15 -10z m228 -15 c3 -16 0 -24 -7 -22 -14 4 -21 47 -8 47 5 0
12 -11 15 -25z"/>
<path d="M1215 2129 c-54 -9 -147 -37 -208 -64 -33 -13 -37 -18 -26 -31 19
-23 -4 -40 -25 -19 -14 15 -19 14 -59 -13 -216 -149 -340 -378 -353 -649 -5
-113 -6 -111 61 -103 34 4 40 5 52 13 6 4 13 3 15 -3 1 -5 23 -11 47 -12 l44
-3 17 -60 c48 -171 159 -305 316 -381 39 -18 74 -34 78 -34 3 0 6 27 6 59 l0
60 -59 31 c-185 99 -282 317 -234 524 18 78 56 147 119 215 28 31 54 69 58 86
7 26 9 27 17 12 9 -16 12 -16 47 -1 158 69 291 69 430 1 92 -44 171 -125 217
-222 37 -77 39 -84 39 -185 1 -58 -2 -119 -6 -136 l-7 -32 56 3 c30 2 57 5 58
7 2 2 8 31 14 64 38 240 -95 492 -318 603 -151 75 -318 82 -483 20 -35 -13
-58 -27 -58 -36 0 -9 -6 -13 -15 -9 -14 5 -112 -66 -143 -103 -65 -80 -122
-190 -137 -266 -16 -81 -11 -75 -66 -75 -43 0 -50 2 -45 18 3 9 7 34 10 54 17
110 84 242 174 340 101 109 231 178 407 215 l40 8 0 55 c0 62 -1 63 -80 49z
m-375 -233 c0 -3 -4 -8 -10 -11 -5 -3 -10 -1 -10 4 0 6 5 11 10 11 6 0 10 -2
10 -4z m-21 -72 c-9 -11 -9 -14 0 -14 7 0 0 -11 -14 -24 -35 -32 -56 -25 -45
15 5 16 6 29 2 29 -4 0 4 6 18 14 30 16 57 2 39 -20z m-99 -105 c0 -5 -7 -9
-15 -9 -9 0 -12 6 -9 15 6 15 24 11 24 -6z m-100 -109 c0 -5 -5 -10 -11 -10
-5 0 -7 5 -4 10 3 6 8 10 11 10 2 0 4 -4 4 -10z m84 -301 c-7 -12 -31 -11 -38
0 -4 5 -3 17 0 26 6 15 8 15 25 -1 10 -9 16 -21 13 -25z m-57 -41 c-3 -8 -6
-5 -6 6 -1 11 2 17 5 13 3 -3 4 -12 1 -19z m53 2 c0 -5 -5 -10 -11 -10 -5 0
-7 5 -4 10 3 6 8 10 11 10 2 0 4 -4 4 -10z"/>
<path d="M1213 1682 c-55 -23 -58 -27 -33 -52 22 -22 19 -40 -6 -40 -8 0 -14
10 -14 24 0 39 -14 38 -62 -3 -121 -107 -157 -296 -84 -441 117 -234 425 -279
605 -89 21 21 43 51 50 66 7 15 18 36 23 46 5 10 6 28 2 39 -4 13 -2 18 4 14
26 -16 29 128 4 204 -39 116 -151 222 -259 245 l-33 7 0 -55 0 -55 55 -26
c126 -62 181 -221 118 -342 -48 -93 -55 -104 -66 -104 -6 0 -30 -9 -54 -21
-23 -11 -68 -22 -100 -24 -215 -13 -353 230 -231 408 11 15 16 27 12 27 -12 0
83 58 120 74 31 13 33 16 32 65 -1 59 -10 62 -83 33z m39 -54 c-10 -10 -15
-10 -22 2 -6 9 -5 17 3 22 18 11 33 -10 19 -24z"/>
<path d="M1285 1449 c-52 -25 -92 -146 -56 -168 7 -5 13 -12 13 -17 1 -24 14
-38 51 -54 66 -30 129 -9 167 53 54 88 -12 198 -117 196 -21 0 -47 -5 -58 -10z
m38 -214 c1 -5 -6 -11 -15 -13 -11 -2 -18 3 -18 13 0 17 30 18 33 0z"/>
<path d="M2540 1243 c0 -82 -62 -321 -93 -361 -12 -15 -4 -25 23 -29 19 -3 70
51 70 75 0 6 11 24 25 40 13 16 23 40 22 53 -3 31 22 168 34 191 15 29 11 39
-15 32 -17 -4 -30 1 -45 17 l-21 23 0 -41z"/>
<path d="M2283 1223 l-42 -4 -12 -57 c-21 -102 -97 -289 -121 -300 -5 -2 -8
-11 -8 -19 0 -10 6 -13 16 -9 13 5 14 4 6 -7 -7 -8 -10 -17 -7 -20 3 -4 2 -5
-2 -2 -3 3 -12 -3 -20 -13 -13 -16 -14 -15 -10 8 5 23 5 23 -6 5 -26 -43 -169
-177 -234 -218 -98 -64 -174 -96 -310 -133 -8 -2 -12 -23 -12 -58 1 -53 2 -54
28 -50 47 8 135 35 176 54 22 10 55 24 73 31 31 13 47 34 17 23 -11 -4 -13 -2
-9 9 3 8 1 18 -5 22 -17 10 -13 28 5 21 10 -4 26 1 38 11 19 17 20 17 7 1 -12
-16 -11 -18 13 -16 23 2 26 7 26 38 0 26 3 31 10 20 9 -13 11 -13 20 0 9 15
11 13 14 -12 3 -34 48 -7 140 87 44 44 116 138 116 149 0 5 -11 5 -25 2 -25
-6 -30 0 -20 26 4 9 17 13 40 10 35 -4 35 -4 71 73 63 136 112 337 82 333 -7
-1 -32 -3 -55 -5z"/>
<path d="M1795 1157 c-25 -29 -65 -107 -65 -126 0 -12 -6 -21 -14 -21 -8 0
-44 -22 -80 -49 -81 -61 -158 -91 -261 -99 l-80 -7 -1 -52 c-2 -59 2 -61 85
-57 213 13 402 139 497 332 30 60 34 76 23 83 -8 5 -17 9 -21 9 -12 0 -10 -18
2 -25 17 -10 0 -26 -21 -20 -14 5 -19 2 -19 -11 0 -14 -3 -15 -11 -7 -9 9 -8
16 5 28 20 20 20 26 1 19 -8 -4 -15 -1 -15 5 0 14 -12 13 -25 -2z"/>
<path d="M1994 1101 c-4 -20 -6 -44 -5 -55 2 -10 -2 -15 -7 -12 -5 3 -28 -22
-49 -57 -84 -132 -196 -226 -335 -281 -226 -89 -493 -50 -673 100 -96 79 -141
135 -195 244 -18 36 -34 67 -36 69 -6 7 -91 4 -103 -3 -6 -4 -9 -12 -5 -17 3
-5 10 -7 15 -4 20 13 30 -7 13 -26 -12 -13 -13 -19 -4 -19 7 0 10 -7 6 -16
-14 -36 91 -192 189 -282 272 -249 683 -282 986 -80 49 33 59 44 54 62 -5 15
-4 17 3 7 7 -10 14 -11 31 -2 33 18 130 141 124 157 -3 9 0 14 7 12 16 -4 83
118 103 189 l15 51 -63 0 -63 -1 -8 -36z m-1307 -17 c-9 -9 -28 6 -21 18 4 6
10 6 17 -1 6 -6 8 -13 4 -17z"/>
<path d="M2405 790 c-3 -5 -4 -14 -1 -19 4 -5 2 -11 -4 -13 -5 -2 -7 -19 -3
-41 5 -33 8 -37 20 -24 8 8 15 28 15 46 1 17 5 34 10 37 4 3 8 9 8 15 0 12
-37 12 -45 -1z"/>
<path d="M2372 685 c-6 -14 -7 -25 -2 -25 9 0 25 39 18 46 -3 2 -10 -7 -16
-21z"/>
<path d="M2341 684 c0 -5 -23 -38 -51 -72 -56 -70 -62 -82 -24 -49 77 65 85
76 81 104 -2 15 -5 23 -6 17z"/>
<path d="M2185 411 c50 -24 55 -25 55 -6 0 8 -3 15 -7 15 -5 1 -26 3 -48 5
l-40 5 40 -19z"/>
</g>
</svg>
